# xmcd
#
# Track frame offsets:
#	151
#	17954
#	33891
#	50328
#	68520
#	84499
#	100439
#	116714
#	134653
#	155055
#	173179
#
# Disc length: 2506 seconds
#
# Revision: 0
# Processed by: cddbd v1.5.2PL0 Copyright (c) Steve Scherf et al.
# Submitted via: dBpowerAMP V4.0
#
DISCID=9309c80b
DTITLE=Zucchero - Fly
DYEAR=2006
DGENRE=Blues
TTITLE0=Bacco Perbacco
TTITLE1=Un Kilo
TTITLE2=Occhi
TTITLE3=Quanti Anni Ho
TTITLE4=Cuba Libre
TTITLE5=E' Delicato
TTITLE6=L'Amore è Nell'Aria
TTITLE7=Pronto
TTITLE8=Let It Shine
TTITLE9=Troppa Fedeltà
TTITLE10=E Di Grazia Plena
EXTD=Zucchero - Fly
EXTT0=
EXTT1=
EXTT2=
EXTT3=
EXTT4=
EXTT5=
EXTT6=
EXTT7=
EXTT8=
EXTT9=
EXTT10=
PLAYORDER=
